<mxfile host="Electron" agent="Mozilla/5.0 (Windows NT 10.0; Win64; x64) AppleWebKit/537.36 (KHTML, like Gecko) draw.io/24.7.17 Chrome/128.0.6613.36 Electron/32.0.1 Safari/537.36" version="24.7.17">
  <diagram name="Page-1" id="38KXrhuh_r0ZW1ci2L4v">
    <mxGraphModel dx="1235" dy="799" grid="0" gridSize="10" guides="1" tooltips="1" connect="1" arrows="1" fold="1" page="1" pageScale="1" pageWidth="2336" pageHeight="1654" math="0" shadow="0">
      <root>
        <mxCell id="0" />
        <mxCell id="1" parent="0" />
        <mxCell id="CBjaDHbcw242QkBKDrpj-1" value="Có" style="shape=rhombus;perimeter=rhombusPerimeter;whiteSpace=wrap;html=1;align=center;" parent="1" vertex="1">
          <mxGeometry x="268" y="1122.5" width="73" height="41.5" as="geometry" />
        </mxCell>
        <mxCell id="CBjaDHbcw242QkBKDrpj-2" value="Khách hàng" style="whiteSpace=wrap;html=1;align=center;" parent="1" vertex="1">
          <mxGeometry x="152" y="1125.25" width="80" height="36" as="geometry" />
        </mxCell>
        <mxCell id="CBjaDHbcw242QkBKDrpj-3" value="Phiếu đặt phòng" style="whiteSpace=wrap;html=1;align=center;" parent="1" vertex="1">
          <mxGeometry x="373" y="1122.5" width="95" height="42" as="geometry" />
        </mxCell>
        <mxCell id="CBjaDHbcw242QkBKDrpj-4" value="Có" style="shape=rhombus;perimeter=rhombusPerimeter;whiteSpace=wrap;html=1;align=center;" parent="1" vertex="1">
          <mxGeometry x="541" y="1121" width="71" height="45" as="geometry" />
        </mxCell>
        <mxCell id="CBjaDHbcw242QkBKDrpj-5" value="Phòng" style="whiteSpace=wrap;html=1;align=center;" parent="1" vertex="1">
          <mxGeometry x="656" y="1122.5" width="100" height="40" as="geometry" />
        </mxCell>
        <mxCell id="CBjaDHbcw242QkBKDrpj-6" value="Có" style="shape=rhombus;perimeter=rhombusPerimeter;whiteSpace=wrap;html=1;align=center;rotation=0;" parent="1" vertex="1">
          <mxGeometry x="669" y="1231" width="74" height="40" as="geometry" />
        </mxCell>
        <mxCell id="CBjaDHbcw242QkBKDrpj-7" value="Bảng vật dụng thiết bị" style="whiteSpace=wrap;html=1;align=center;" parent="1" vertex="1">
          <mxGeometry x="800" y="1286" width="100" height="40" as="geometry" />
        </mxCell>
        <mxCell id="CBjaDHbcw242QkBKDrpj-8" value="Thiết bị" style="whiteSpace=wrap;html=1;align=center;" parent="1" vertex="1">
          <mxGeometry x="1079" y="1285" width="100" height="40" as="geometry" />
        </mxCell>
        <mxCell id="CBjaDHbcw242QkBKDrpj-9" value="Sở hữu" style="shape=rhombus;perimeter=rhombusPerimeter;whiteSpace=wrap;html=1;align=center;" parent="1" vertex="1">
          <mxGeometry x="947.5" y="1285" width="72" height="41" as="geometry" />
        </mxCell>
        <mxCell id="CBjaDHbcw242QkBKDrpj-10" value="Loại phòng" style="whiteSpace=wrap;html=1;align=center;" parent="1" vertex="1">
          <mxGeometry x="984" y="1121.25" width="100" height="40" as="geometry" />
        </mxCell>
        <mxCell id="CBjaDHbcw242QkBKDrpj-11" value="thuộc" style="shape=rhombus;perimeter=rhombusPerimeter;whiteSpace=wrap;html=1;align=center;" parent="1" vertex="1">
          <mxGeometry x="828" y="1121" width="68" height="43" as="geometry" />
        </mxCell>
        <mxCell id="CBjaDHbcw242QkBKDrpj-13" value="Phiếu sự cố" style="whiteSpace=wrap;html=1;align=center;" parent="1" vertex="1">
          <mxGeometry x="843" y="963" width="100" height="40" as="geometry" />
        </mxCell>
        <mxCell id="CBjaDHbcw242QkBKDrpj-14" value="Ghi nhận" style="shape=rhombus;perimeter=rhombusPerimeter;whiteSpace=wrap;html=1;align=center;" parent="1" vertex="1">
          <mxGeometry x="1011" y="960" width="98.5" height="46" as="geometry" />
        </mxCell>
        <mxCell id="CBjaDHbcw242QkBKDrpj-15" value="Sự cố" style="whiteSpace=wrap;html=1;align=center;" parent="1" vertex="1">
          <mxGeometry x="1202" y="963" width="100" height="40" as="geometry" />
        </mxCell>
        <mxCell id="CBjaDHbcw242QkBKDrpj-16" value="Nhân viên" style="whiteSpace=wrap;html=1;align=center;" parent="1" vertex="1">
          <mxGeometry x="248" y="822" width="100" height="40" as="geometry" />
        </mxCell>
        <mxCell id="CmPefd4hXbX57iXmey2R-1" value="" style="endArrow=none;html=1;rounded=0;fontSize=12;startSize=8;endSize=8;curved=1;exitX=0;exitY=0.5;exitDx=0;exitDy=0;entryX=1;entryY=0.5;entryDx=0;entryDy=0;" edge="1" parent="1" source="CBjaDHbcw242QkBKDrpj-10" target="CBjaDHbcw242QkBKDrpj-11">
          <mxGeometry relative="1" as="geometry">
            <mxPoint x="702" y="1036" as="sourcePoint" />
            <mxPoint x="862" y="1036" as="targetPoint" />
          </mxGeometry>
        </mxCell>
        <mxCell id="CmPefd4hXbX57iXmey2R-2" value="1" style="resizable=0;html=1;whiteSpace=wrap;align=right;verticalAlign=bottom;" connectable="0" vertex="1" parent="CmPefd4hXbX57iXmey2R-1">
          <mxGeometry x="1" relative="1" as="geometry" />
        </mxCell>
        <mxCell id="CmPefd4hXbX57iXmey2R-3" value="" style="endArrow=none;html=1;rounded=0;fontSize=12;startSize=8;endSize=8;curved=1;entryX=0;entryY=0.5;entryDx=0;entryDy=0;exitX=1;exitY=0.5;exitDx=0;exitDy=0;" edge="1" parent="1" source="CBjaDHbcw242QkBKDrpj-5" target="CBjaDHbcw242QkBKDrpj-11">
          <mxGeometry relative="1" as="geometry">
            <mxPoint x="702" y="1036" as="sourcePoint" />
            <mxPoint x="886" y="1089" as="targetPoint" />
          </mxGeometry>
        </mxCell>
        <mxCell id="CmPefd4hXbX57iXmey2R-4" value="N" style="resizable=0;html=1;whiteSpace=wrap;align=right;verticalAlign=bottom;" connectable="0" vertex="1" parent="CmPefd4hXbX57iXmey2R-3">
          <mxGeometry x="1" relative="1" as="geometry" />
        </mxCell>
        <mxCell id="CmPefd4hXbX57iXmey2R-6" value="" style="endArrow=none;html=1;rounded=0;fontSize=12;startSize=8;endSize=8;curved=1;entryX=0.5;entryY=0;entryDx=0;entryDy=0;exitX=0.5;exitY=1;exitDx=0;exitDy=0;" edge="1" parent="1" source="CBjaDHbcw242QkBKDrpj-5" target="CBjaDHbcw242QkBKDrpj-6">
          <mxGeometry relative="1" as="geometry">
            <mxPoint x="673" y="1181" as="sourcePoint" />
            <mxPoint x="866" y="1119" as="targetPoint" />
          </mxGeometry>
        </mxCell>
        <mxCell id="CmPefd4hXbX57iXmey2R-7" value="1" style="resizable=0;html=1;whiteSpace=wrap;align=right;verticalAlign=bottom;" connectable="0" vertex="1" parent="CmPefd4hXbX57iXmey2R-6">
          <mxGeometry x="1" relative="1" as="geometry" />
        </mxCell>
        <mxCell id="CmPefd4hXbX57iXmey2R-8" value="" style="endArrow=none;html=1;rounded=0;fontSize=12;startSize=8;endSize=8;curved=1;entryX=0.5;entryY=1;entryDx=0;entryDy=0;exitX=0;exitY=0.5;exitDx=0;exitDy=0;" edge="1" parent="1" source="CBjaDHbcw242QkBKDrpj-7" target="CBjaDHbcw242QkBKDrpj-6">
          <mxGeometry relative="1" as="geometry">
            <mxPoint x="716" y="1171" as="sourcePoint" />
            <mxPoint x="716" y="1241" as="targetPoint" />
          </mxGeometry>
        </mxCell>
        <mxCell id="CmPefd4hXbX57iXmey2R-9" value="1" style="resizable=0;html=1;whiteSpace=wrap;align=right;verticalAlign=bottom;" connectable="0" vertex="1" parent="CmPefd4hXbX57iXmey2R-8">
          <mxGeometry x="1" relative="1" as="geometry">
            <mxPoint x="8" y="19" as="offset" />
          </mxGeometry>
        </mxCell>
        <mxCell id="CmPefd4hXbX57iXmey2R-10" value="" style="endArrow=none;html=1;rounded=0;fontSize=12;startSize=8;endSize=8;curved=1;entryX=0;entryY=0.5;entryDx=0;entryDy=0;exitX=1;exitY=0.5;exitDx=0;exitDy=0;" edge="1" parent="1" source="CBjaDHbcw242QkBKDrpj-7" target="CBjaDHbcw242QkBKDrpj-9">
          <mxGeometry relative="1" as="geometry">
            <mxPoint x="832" y="1179" as="sourcePoint" />
            <mxPoint x="992" y="1179" as="targetPoint" />
          </mxGeometry>
        </mxCell>
        <mxCell id="CmPefd4hXbX57iXmey2R-11" value="N" style="resizable=0;html=1;whiteSpace=wrap;align=right;verticalAlign=bottom;" connectable="0" vertex="1" parent="CmPefd4hXbX57iXmey2R-10">
          <mxGeometry x="1" relative="1" as="geometry" />
        </mxCell>
        <mxCell id="CmPefd4hXbX57iXmey2R-12" value="" style="endArrow=none;html=1;rounded=0;fontSize=12;startSize=8;endSize=8;curved=1;entryX=1;entryY=0.5;entryDx=0;entryDy=0;exitX=0;exitY=0.5;exitDx=0;exitDy=0;" edge="1" parent="1" source="CBjaDHbcw242QkBKDrpj-8" target="CBjaDHbcw242QkBKDrpj-9">
          <mxGeometry relative="1" as="geometry">
            <mxPoint x="832" y="1179" as="sourcePoint" />
            <mxPoint x="992" y="1179" as="targetPoint" />
          </mxGeometry>
        </mxCell>
        <mxCell id="CmPefd4hXbX57iXmey2R-13" value="N" style="resizable=0;html=1;whiteSpace=wrap;align=right;verticalAlign=bottom;" connectable="0" vertex="1" parent="CmPefd4hXbX57iXmey2R-12">
          <mxGeometry x="1" relative="1" as="geometry" />
        </mxCell>
        <mxCell id="CmPefd4hXbX57iXmey2R-14" value="" style="endArrow=none;html=1;rounded=0;fontSize=12;startSize=8;endSize=8;curved=1;entryX=0;entryY=0.5;entryDx=0;entryDy=0;exitX=1;exitY=0.5;exitDx=0;exitDy=0;" edge="1" parent="1" source="CBjaDHbcw242QkBKDrpj-3" target="CBjaDHbcw242QkBKDrpj-13">
          <mxGeometry relative="1" as="geometry">
            <mxPoint x="564" y="1019" as="sourcePoint" />
            <mxPoint x="724" y="1019" as="targetPoint" />
          </mxGeometry>
        </mxCell>
        <mxCell id="CmPefd4hXbX57iXmey2R-15" value="1" style="resizable=0;html=1;whiteSpace=wrap;align=right;verticalAlign=bottom;" connectable="0" vertex="1" parent="CmPefd4hXbX57iXmey2R-14">
          <mxGeometry x="1" relative="1" as="geometry" />
        </mxCell>
        <mxCell id="CmPefd4hXbX57iXmey2R-16" value="" style="endArrow=none;html=1;rounded=0;fontSize=12;startSize=8;endSize=8;curved=1;entryX=0;entryY=0.5;entryDx=0;entryDy=0;exitX=1;exitY=0.5;exitDx=0;exitDy=0;" edge="1" parent="1" source="CBjaDHbcw242QkBKDrpj-2" target="CBjaDHbcw242QkBKDrpj-1">
          <mxGeometry relative="1" as="geometry">
            <mxPoint x="354" y="1065.75" as="sourcePoint" />
            <mxPoint x="514" y="1065.75" as="targetPoint" />
          </mxGeometry>
        </mxCell>
        <mxCell id="CmPefd4hXbX57iXmey2R-17" value="1" style="resizable=0;html=1;whiteSpace=wrap;align=right;verticalAlign=bottom;" connectable="0" vertex="1" parent="CmPefd4hXbX57iXmey2R-16">
          <mxGeometry x="1" relative="1" as="geometry" />
        </mxCell>
        <mxCell id="CmPefd4hXbX57iXmey2R-18" value="" style="endArrow=none;html=1;rounded=0;fontSize=12;startSize=8;endSize=8;curved=1;entryX=1;entryY=0.5;entryDx=0;entryDy=0;exitX=0;exitY=0.5;exitDx=0;exitDy=0;" edge="1" parent="1" source="CBjaDHbcw242QkBKDrpj-3" target="CBjaDHbcw242QkBKDrpj-1">
          <mxGeometry relative="1" as="geometry">
            <mxPoint x="549" y="1035" as="sourcePoint" />
            <mxPoint x="709" y="1035" as="targetPoint" />
          </mxGeometry>
        </mxCell>
        <mxCell id="CmPefd4hXbX57iXmey2R-19" value="N" style="resizable=0;html=1;whiteSpace=wrap;align=right;verticalAlign=bottom;" connectable="0" vertex="1" parent="CmPefd4hXbX57iXmey2R-18">
          <mxGeometry x="1" relative="1" as="geometry" />
        </mxCell>
        <mxCell id="CmPefd4hXbX57iXmey2R-20" value="" style="endArrow=none;html=1;rounded=0;fontSize=12;startSize=8;endSize=8;curved=1;exitX=1;exitY=0.5;exitDx=0;exitDy=0;entryX=0;entryY=0.5;entryDx=0;entryDy=0;" edge="1" parent="1" source="CBjaDHbcw242QkBKDrpj-3" target="CBjaDHbcw242QkBKDrpj-4">
          <mxGeometry relative="1" as="geometry">
            <mxPoint x="549" y="1035" as="sourcePoint" />
            <mxPoint x="709" y="1035" as="targetPoint" />
          </mxGeometry>
        </mxCell>
        <mxCell id="CmPefd4hXbX57iXmey2R-21" value="1" style="resizable=0;html=1;whiteSpace=wrap;align=right;verticalAlign=bottom;" connectable="0" vertex="1" parent="CmPefd4hXbX57iXmey2R-20">
          <mxGeometry x="1" relative="1" as="geometry" />
        </mxCell>
        <mxCell id="CmPefd4hXbX57iXmey2R-22" value="" style="endArrow=none;html=1;rounded=0;fontSize=12;startSize=8;endSize=8;curved=1;entryX=1;entryY=0.5;entryDx=0;entryDy=0;exitX=0;exitY=0.5;exitDx=0;exitDy=0;" edge="1" parent="1" source="CBjaDHbcw242QkBKDrpj-5" target="CBjaDHbcw242QkBKDrpj-4">
          <mxGeometry relative="1" as="geometry">
            <mxPoint x="549" y="1035" as="sourcePoint" />
            <mxPoint x="709" y="1035" as="targetPoint" />
          </mxGeometry>
        </mxCell>
        <mxCell id="CmPefd4hXbX57iXmey2R-23" value="N" style="resizable=0;html=1;whiteSpace=wrap;align=right;verticalAlign=bottom;" connectable="0" vertex="1" parent="CmPefd4hXbX57iXmey2R-22">
          <mxGeometry x="1" relative="1" as="geometry" />
        </mxCell>
        <mxCell id="CmPefd4hXbX57iXmey2R-24" value="" style="endArrow=none;html=1;rounded=0;fontSize=12;startSize=8;endSize=8;curved=1;entryX=0;entryY=0.5;entryDx=0;entryDy=0;exitX=1;exitY=0.5;exitDx=0;exitDy=0;" edge="1" parent="1" source="CBjaDHbcw242QkBKDrpj-13" target="CBjaDHbcw242QkBKDrpj-14">
          <mxGeometry relative="1" as="geometry">
            <mxPoint x="816" y="939" as="sourcePoint" />
            <mxPoint x="976" y="939" as="targetPoint" />
          </mxGeometry>
        </mxCell>
        <mxCell id="CmPefd4hXbX57iXmey2R-25" value="N" style="resizable=0;html=1;whiteSpace=wrap;align=right;verticalAlign=bottom;" connectable="0" vertex="1" parent="CmPefd4hXbX57iXmey2R-24">
          <mxGeometry x="1" relative="1" as="geometry" />
        </mxCell>
        <mxCell id="CmPefd4hXbX57iXmey2R-26" value="" style="endArrow=none;html=1;rounded=0;fontSize=12;startSize=8;endSize=8;curved=1;entryX=1;entryY=0.5;entryDx=0;entryDy=0;exitX=0;exitY=0.5;exitDx=0;exitDy=0;" edge="1" parent="1" source="CBjaDHbcw242QkBKDrpj-15" target="CBjaDHbcw242QkBKDrpj-14">
          <mxGeometry relative="1" as="geometry">
            <mxPoint x="816" y="939" as="sourcePoint" />
            <mxPoint x="976" y="939" as="targetPoint" />
          </mxGeometry>
        </mxCell>
        <mxCell id="CmPefd4hXbX57iXmey2R-27" value="N" style="resizable=0;html=1;whiteSpace=wrap;align=right;verticalAlign=bottom;" connectable="0" vertex="1" parent="CmPefd4hXbX57iXmey2R-26">
          <mxGeometry x="1" relative="1" as="geometry" />
        </mxCell>
        <mxCell id="CmPefd4hXbX57iXmey2R-28" value="Tạo phiếu" style="shape=rhombus;perimeter=rhombusPerimeter;whiteSpace=wrap;html=1;align=center;" vertex="1" parent="1">
          <mxGeometry x="257" y="979" width="82" height="46" as="geometry" />
        </mxCell>
        <mxCell id="CmPefd4hXbX57iXmey2R-29" value="" style="endArrow=none;html=1;rounded=0;fontSize=12;startSize=8;endSize=8;curved=1;exitX=0.5;exitY=1;exitDx=0;exitDy=0;entryX=0.5;entryY=0;entryDx=0;entryDy=0;" edge="1" parent="1" source="CBjaDHbcw242QkBKDrpj-16" target="CmPefd4hXbX57iXmey2R-28">
          <mxGeometry relative="1" as="geometry">
            <mxPoint x="423" y="949" as="sourcePoint" />
            <mxPoint x="583" y="949" as="targetPoint" />
          </mxGeometry>
        </mxCell>
        <mxCell id="CmPefd4hXbX57iXmey2R-30" value="1" style="resizable=0;html=1;whiteSpace=wrap;align=right;verticalAlign=bottom;" connectable="0" vertex="1" parent="CmPefd4hXbX57iXmey2R-29">
          <mxGeometry x="1" relative="1" as="geometry">
            <mxPoint x="13" as="offset" />
          </mxGeometry>
        </mxCell>
        <mxCell id="CmPefd4hXbX57iXmey2R-31" value="" style="endArrow=none;html=1;rounded=0;fontSize=12;startSize=8;endSize=8;curved=1;entryX=0.5;entryY=1;entryDx=0;entryDy=0;exitX=0.5;exitY=0;exitDx=0;exitDy=0;" edge="1" parent="1" source="CBjaDHbcw242QkBKDrpj-3" target="CmPefd4hXbX57iXmey2R-28">
          <mxGeometry relative="1" as="geometry">
            <mxPoint x="415" y="961" as="sourcePoint" />
            <mxPoint x="575" y="961" as="targetPoint" />
          </mxGeometry>
        </mxCell>
        <mxCell id="CmPefd4hXbX57iXmey2R-32" value="N" style="resizable=0;html=1;whiteSpace=wrap;align=right;verticalAlign=bottom;" connectable="0" vertex="1" parent="CmPefd4hXbX57iXmey2R-31">
          <mxGeometry x="1" relative="1" as="geometry">
            <mxPoint y="14" as="offset" />
          </mxGeometry>
        </mxCell>
        <mxCell id="CmPefd4hXbX57iXmey2R-33" value="Hóa đơn phòng" style="whiteSpace=wrap;html=1;align=center;" vertex="1" parent="1">
          <mxGeometry x="370.5" y="878" width="100" height="40" as="geometry" />
        </mxCell>
        <mxCell id="CmPefd4hXbX57iXmey2R-34" value="Có" style="shape=rhombus;perimeter=rhombusPerimeter;whiteSpace=wrap;html=1;align=center;" vertex="1" parent="1">
          <mxGeometry x="379" y="982.5" width="83" height="39" as="geometry" />
        </mxCell>
        <mxCell id="CmPefd4hXbX57iXmey2R-35" value="Có" style="shape=rhombus;perimeter=rhombusPerimeter;whiteSpace=wrap;html=1;align=center;" vertex="1" parent="1">
          <mxGeometry x="507" y="982.5" width="83" height="39" as="geometry" />
        </mxCell>
        <mxCell id="CmPefd4hXbX57iXmey2R-36" value="" style="endArrow=none;html=1;rounded=0;fontSize=12;startSize=8;endSize=8;curved=1;entryX=0.5;entryY=1;entryDx=0;entryDy=0;exitX=0.5;exitY=0;exitDx=0;exitDy=0;" edge="1" parent="1" source="CBjaDHbcw242QkBKDrpj-3" target="CmPefd4hXbX57iXmey2R-34">
          <mxGeometry relative="1" as="geometry">
            <mxPoint x="396" y="1008" as="sourcePoint" />
            <mxPoint x="556" y="1008" as="targetPoint" />
          </mxGeometry>
        </mxCell>
        <mxCell id="CmPefd4hXbX57iXmey2R-37" value="1" style="resizable=0;html=1;whiteSpace=wrap;align=right;verticalAlign=bottom;" connectable="0" vertex="1" parent="CmPefd4hXbX57iXmey2R-36">
          <mxGeometry x="1" relative="1" as="geometry">
            <mxPoint y="15" as="offset" />
          </mxGeometry>
        </mxCell>
        <mxCell id="CmPefd4hXbX57iXmey2R-38" value="" style="endArrow=none;html=1;rounded=0;fontSize=12;startSize=8;endSize=8;curved=1;entryX=0.5;entryY=0;entryDx=0;entryDy=0;exitX=0.5;exitY=1;exitDx=0;exitDy=0;" edge="1" parent="1" source="CmPefd4hXbX57iXmey2R-33" target="CmPefd4hXbX57iXmey2R-34">
          <mxGeometry relative="1" as="geometry">
            <mxPoint x="415" y="907" as="sourcePoint" />
            <mxPoint x="415" y="971.5" as="targetPoint" />
          </mxGeometry>
        </mxCell>
        <mxCell id="CmPefd4hXbX57iXmey2R-39" value="1" style="resizable=0;html=1;whiteSpace=wrap;align=right;verticalAlign=bottom;" connectable="0" vertex="1" parent="CmPefd4hXbX57iXmey2R-38">
          <mxGeometry x="1" relative="1" as="geometry">
            <mxPoint x="-2" y="1" as="offset" />
          </mxGeometry>
        </mxCell>
        <mxCell id="CmPefd4hXbX57iXmey2R-40" value="Hóa đơn dịch vụ" style="whiteSpace=wrap;html=1;align=center;" vertex="1" parent="1">
          <mxGeometry x="498.5" y="874" width="100" height="40" as="geometry" />
        </mxCell>
        <mxCell id="CmPefd4hXbX57iXmey2R-41" value="Dịch vụ" style="whiteSpace=wrap;html=1;align=center;" vertex="1" parent="1">
          <mxGeometry x="692" y="761" width="100" height="40" as="geometry" />
        </mxCell>
        <mxCell id="CmPefd4hXbX57iXmey2R-42" value="Sử dụng" style="shape=rhombus;perimeter=rhombusPerimeter;whiteSpace=wrap;html=1;align=center;" vertex="1" parent="1">
          <mxGeometry x="700.5" y="875" width="83" height="39" as="geometry" />
        </mxCell>
        <mxCell id="CmPefd4hXbX57iXmey2R-44" value="" style="endArrow=none;html=1;rounded=0;fontSize=12;startSize=8;endSize=8;curved=1;exitX=0.5;exitY=0;exitDx=0;exitDy=0;entryX=0.5;entryY=1;entryDx=0;entryDy=0;" edge="1" parent="1" source="CBjaDHbcw242QkBKDrpj-3" target="CmPefd4hXbX57iXmey2R-35">
          <mxGeometry relative="1" as="geometry">
            <mxPoint x="441" y="1059" as="sourcePoint" />
            <mxPoint x="601" y="1059" as="targetPoint" />
          </mxGeometry>
        </mxCell>
        <mxCell id="CmPefd4hXbX57iXmey2R-45" value="1" style="resizable=0;html=1;whiteSpace=wrap;align=right;verticalAlign=bottom;" connectable="0" vertex="1" parent="CmPefd4hXbX57iXmey2R-44">
          <mxGeometry x="1" relative="1" as="geometry">
            <mxPoint x="-11" y="10" as="offset" />
          </mxGeometry>
        </mxCell>
        <mxCell id="CmPefd4hXbX57iXmey2R-46" value="" style="endArrow=none;html=1;rounded=0;fontSize=12;startSize=8;endSize=8;curved=1;exitX=0.5;exitY=1;exitDx=0;exitDy=0;entryX=0.5;entryY=0;entryDx=0;entryDy=0;" edge="1" parent="1" source="CmPefd4hXbX57iXmey2R-40" target="CmPefd4hXbX57iXmey2R-35">
          <mxGeometry relative="1" as="geometry">
            <mxPoint x="431" y="1133" as="sourcePoint" />
            <mxPoint x="559" y="1032" as="targetPoint" />
          </mxGeometry>
        </mxCell>
        <mxCell id="CmPefd4hXbX57iXmey2R-47" value="1" style="resizable=0;html=1;whiteSpace=wrap;align=right;verticalAlign=bottom;" connectable="0" vertex="1" parent="CmPefd4hXbX57iXmey2R-46">
          <mxGeometry x="1" relative="1" as="geometry" />
        </mxCell>
        <mxCell id="CmPefd4hXbX57iXmey2R-50" value="" style="endArrow=none;html=1;rounded=0;fontSize=12;startSize=8;endSize=8;curved=1;exitX=1;exitY=0.5;exitDx=0;exitDy=0;entryX=0;entryY=0.5;entryDx=0;entryDy=0;" edge="1" parent="1" source="CmPefd4hXbX57iXmey2R-40" target="CmPefd4hXbX57iXmey2R-42">
          <mxGeometry relative="1" as="geometry">
            <mxPoint x="602" y="950" as="sourcePoint" />
            <mxPoint x="762" y="950" as="targetPoint" />
          </mxGeometry>
        </mxCell>
        <mxCell id="CmPefd4hXbX57iXmey2R-51" value="N" style="resizable=0;html=1;whiteSpace=wrap;align=right;verticalAlign=bottom;" connectable="0" vertex="1" parent="CmPefd4hXbX57iXmey2R-50">
          <mxGeometry x="1" relative="1" as="geometry" />
        </mxCell>
        <mxCell id="CmPefd4hXbX57iXmey2R-52" value="" style="endArrow=none;html=1;rounded=0;fontSize=12;startSize=8;endSize=8;curved=1;entryX=0.5;entryY=0;entryDx=0;entryDy=0;exitX=0.5;exitY=1;exitDx=0;exitDy=0;" edge="1" parent="1" source="CmPefd4hXbX57iXmey2R-41" target="CmPefd4hXbX57iXmey2R-42">
          <mxGeometry relative="1" as="geometry">
            <mxPoint x="602" y="950" as="sourcePoint" />
            <mxPoint x="762" y="950" as="targetPoint" />
          </mxGeometry>
        </mxCell>
        <mxCell id="CmPefd4hXbX57iXmey2R-53" value="N" style="resizable=0;html=1;whiteSpace=wrap;align=right;verticalAlign=bottom;" connectable="0" vertex="1" parent="CmPefd4hXbX57iXmey2R-52">
          <mxGeometry x="1" relative="1" as="geometry" />
        </mxCell>
        <mxCell id="CmPefd4hXbX57iXmey2R-54" value="Khách sạn" style="whiteSpace=wrap;html=1;align=center;" vertex="1" parent="1">
          <mxGeometry x="414" y="1329" width="100" height="40" as="geometry" />
        </mxCell>
        <mxCell id="CmPefd4hXbX57iXmey2R-55" value="Sở hữu" style="shape=rhombus;perimeter=rhombusPerimeter;whiteSpace=wrap;html=1;align=center;" vertex="1" parent="1">
          <mxGeometry x="514" y="1240" width="78" height="39" as="geometry" />
        </mxCell>
        <mxCell id="CmPefd4hXbX57iXmey2R-56" value="" style="endArrow=none;html=1;rounded=0;fontSize=12;startSize=8;endSize=8;curved=1;exitX=0.5;exitY=0;exitDx=0;exitDy=0;entryX=0.5;entryY=1;entryDx=0;entryDy=0;" edge="1" parent="1" source="CmPefd4hXbX57iXmey2R-54" target="CmPefd4hXbX57iXmey2R-55">
          <mxGeometry relative="1" as="geometry">
            <mxPoint x="518" y="1201" as="sourcePoint" />
            <mxPoint x="678" y="1201" as="targetPoint" />
          </mxGeometry>
        </mxCell>
        <mxCell id="CmPefd4hXbX57iXmey2R-57" value="1" style="resizable=0;html=1;whiteSpace=wrap;align=right;verticalAlign=bottom;" connectable="0" vertex="1" parent="CmPefd4hXbX57iXmey2R-56">
          <mxGeometry x="1" relative="1" as="geometry">
            <mxPoint x="-12" y="10" as="offset" />
          </mxGeometry>
        </mxCell>
        <mxCell id="CmPefd4hXbX57iXmey2R-58" value="" style="endArrow=none;html=1;rounded=0;fontSize=12;startSize=8;endSize=8;curved=1;entryX=0.5;entryY=0;entryDx=0;entryDy=0;exitX=0.5;exitY=1;exitDx=0;exitDy=0;" edge="1" parent="1" source="CBjaDHbcw242QkBKDrpj-5" target="CmPefd4hXbX57iXmey2R-55">
          <mxGeometry relative="1" as="geometry">
            <mxPoint x="460" y="1202" as="sourcePoint" />
            <mxPoint x="620" y="1202" as="targetPoint" />
          </mxGeometry>
        </mxCell>
        <mxCell id="CmPefd4hXbX57iXmey2R-59" value="N" style="resizable=0;html=1;whiteSpace=wrap;align=right;verticalAlign=bottom;" connectable="0" vertex="1" parent="CmPefd4hXbX57iXmey2R-58">
          <mxGeometry x="1" relative="1" as="geometry" />
        </mxCell>
        <mxCell id="CmPefd4hXbX57iXmey2R-60" value="Sở hữu&amp;nbsp;" style="shape=rhombus;perimeter=rhombusPerimeter;whiteSpace=wrap;html=1;align=center;" vertex="1" parent="1">
          <mxGeometry x="613" y="1403" width="87.5" height="43" as="geometry" />
        </mxCell>
        <mxCell id="CmPefd4hXbX57iXmey2R-61" value="" style="endArrow=none;html=1;rounded=0;fontSize=12;startSize=8;endSize=8;curved=1;exitX=0.5;exitY=1;exitDx=0;exitDy=0;entryX=0;entryY=0.5;entryDx=0;entryDy=0;" edge="1" parent="1" source="CmPefd4hXbX57iXmey2R-54" target="CmPefd4hXbX57iXmey2R-60">
          <mxGeometry relative="1" as="geometry">
            <mxPoint x="643" y="1256" as="sourcePoint" />
            <mxPoint x="803" y="1256" as="targetPoint" />
          </mxGeometry>
        </mxCell>
        <mxCell id="CmPefd4hXbX57iXmey2R-62" value="1" style="resizable=0;html=1;whiteSpace=wrap;align=right;verticalAlign=bottom;" connectable="0" vertex="1" parent="CmPefd4hXbX57iXmey2R-61">
          <mxGeometry x="1" relative="1" as="geometry" />
        </mxCell>
        <mxCell id="CmPefd4hXbX57iXmey2R-63" value="Khách sạn mẹ" style="whiteSpace=wrap;html=1;align=center;" vertex="1" parent="1">
          <mxGeometry x="812" y="1406" width="100" height="40" as="geometry" />
        </mxCell>
        <mxCell id="CmPefd4hXbX57iXmey2R-64" value="" style="endArrow=none;html=1;rounded=0;fontSize=12;startSize=8;endSize=8;curved=1;exitX=0;exitY=0.5;exitDx=0;exitDy=0;entryX=1;entryY=0.5;entryDx=0;entryDy=0;" edge="1" parent="1" source="CmPefd4hXbX57iXmey2R-63" target="CmPefd4hXbX57iXmey2R-60">
          <mxGeometry relative="1" as="geometry">
            <mxPoint x="638" y="1146" as="sourcePoint" />
            <mxPoint x="798" y="1146" as="targetPoint" />
          </mxGeometry>
        </mxCell>
        <mxCell id="CmPefd4hXbX57iXmey2R-65" value="N" style="resizable=0;html=1;whiteSpace=wrap;align=right;verticalAlign=bottom;" connectable="0" vertex="1" parent="CmPefd4hXbX57iXmey2R-64">
          <mxGeometry x="1" relative="1" as="geometry" />
        </mxCell>
        <mxCell id="CmPefd4hXbX57iXmey2R-67" value="Đánh giá" style="shape=rhombus;perimeter=rhombusPerimeter;whiteSpace=wrap;html=1;align=center;" vertex="1" parent="1">
          <mxGeometry x="310" y="1216" width="101" height="51" as="geometry" />
        </mxCell>
        <mxCell id="CmPefd4hXbX57iXmey2R-68" value="" style="endArrow=none;html=1;rounded=0;fontSize=12;startSize=8;endSize=8;curved=1;entryX=0;entryY=0.5;entryDx=0;entryDy=0;exitX=0.5;exitY=1;exitDx=0;exitDy=0;" edge="1" parent="1" source="CBjaDHbcw242QkBKDrpj-2" target="CmPefd4hXbX57iXmey2R-67">
          <mxGeometry relative="1" as="geometry">
            <mxPoint x="508" y="1104" as="sourcePoint" />
            <mxPoint x="668" y="1104" as="targetPoint" />
          </mxGeometry>
        </mxCell>
        <mxCell id="CmPefd4hXbX57iXmey2R-69" value="N" style="resizable=0;html=1;whiteSpace=wrap;align=right;verticalAlign=bottom;" connectable="0" vertex="1" parent="CmPefd4hXbX57iXmey2R-68">
          <mxGeometry x="1" relative="1" as="geometry" />
        </mxCell>
        <mxCell id="CmPefd4hXbX57iXmey2R-70" value="" style="endArrow=none;html=1;rounded=0;fontSize=12;startSize=8;endSize=8;curved=1;entryX=1;entryY=0.5;entryDx=0;entryDy=0;exitX=0;exitY=1;exitDx=0;exitDy=0;" edge="1" parent="1" source="CBjaDHbcw242QkBKDrpj-5" target="CmPefd4hXbX57iXmey2R-67">
          <mxGeometry relative="1" as="geometry">
            <mxPoint x="508" y="1104" as="sourcePoint" />
            <mxPoint x="668" y="1104" as="targetPoint" />
          </mxGeometry>
        </mxCell>
        <mxCell id="CmPefd4hXbX57iXmey2R-71" value="N" style="resizable=0;html=1;whiteSpace=wrap;align=right;verticalAlign=bottom;" connectable="0" vertex="1" parent="CmPefd4hXbX57iXmey2R-70">
          <mxGeometry x="1" relative="1" as="geometry" />
        </mxCell>
      </root>
    </mxGraphModel>
  </diagram>
</mxfile>
